<svg xmlns="http://www.w3.org/2000/svg" viewBox="0 0 1080 1920" role="img" aria-labelledby="title desc"><title id="title">Livraison de démonstration</title><desc id="desc">Story fictive sans promesse de service réelle.</desc><defs><linearGradient id="g" x2="1" y2="1"><stop stop-color="#111923"/><stop offset="1" stop-color="#263746"/></linearGradient><radialGradient id="r"><stop stop-color="#ff8d81"/><stop offset="1" stop-color="#e14b5a"/></radialGradient></defs><rect width="1080" height="1920" fill="url(#g)"/><circle cx="850" cy="320" r="300" fill="#e14b5a" opacity=".13"/><circle cx="170" cy="1530" r="350" fill="#ffbd75" opacity=".08"/><g transform="translate(190 550)"><rect x="120" y="230" width="470" height="330" rx="70" fill="url(#r)"/><path d="M225 230c0-125 65-205 130-205h50c70 0 145 80 145 205" fill="none" stroke="#fff" stroke-width="40"/><circle cx="210" cy="600" r="68" fill="#fff"/><circle cx="510" cy="600" r="68" fill="#fff"/><path d="M70 450H0M680 450h-90M100 355H25M655 355h-70" stroke="#ffbd75" stroke-width="28" stroke-linecap="round"/></g><text x="540" y="250" text-anchor="middle" font-family="Arial,sans-serif" font-weight="700" font-size="62" fill="#fff">VOTRE PAUSE SUSHI</text><text x="540" y="335" text-anchor="middle" font-family="Arial,sans-serif" font-size="30" fill="#ffb3aa">SCRIPT STORY · DÉMONSTRATION</text><rect x="210" y="1440" width="660" height="110" rx="55" fill="#fff"/><text x="540" y="1510" text-anchor="middle" font-family="Arial,sans-serif" font-weight="700" font-size="34" fill="#111923">CONSULTER LA CARTE VALIDÉE</text><text x="540" y="1690" text-anchor="middle" font-family="Arial,sans-serif" font-size="25" fill="#fff" opacity=".6">Aucun délai ou service réel n’est affirmé</text></svg>
