<svg xmlns="http://www.w3.org/2000/svg" viewBox="0 0 1200 1200" role="img" aria-labelledby="title desc">
  <title id="title">Plateau sushi de démonstration</title><desc id="desc">Illustration abstraite locale, sans produit réel.</desc>
  <defs><radialGradient id="bg" cx="35%" cy="20%" r="90%"><stop stop-color="#263444"/><stop offset="1" stop-color="#0e151d"/></radialGradient><filter id="s"><feDropShadow dx="0" dy="18" stdDeviation="20" flood-opacity=".32"/></filter></defs>
  <rect width="1200" height="1200" fill="url(#bg)"/><circle cx="600" cy="580" r="420" fill="#f8e8d7" filter="url(#s)"/><g transform="translate(260 280)">
    <g fill="#fff7ed" stroke="#eee0d1" stroke-width="9"><circle cx="170" cy="170" r="105"/><circle cx="410" cy="140" r="105"/><circle cx="640" cy="190" r="105"/><circle cx="270" cy="420" r="105"/><circle cx="530" cy="430" r="105"/></g>
    <g fill="#17212b"><circle cx="170" cy="170" r="66"/><circle cx="410" cy="140" r="66"/><circle cx="640" cy="190" r="66"/><circle cx="270" cy="420" r="66"/><circle cx="530" cy="430" r="66"/></g>
    <g fill="#ef6670"><circle cx="170" cy="170" r="38"/><circle cx="640" cy="190" r="38"/><circle cx="530" cy="430" r="38"/></g><g fill="#89b98a"><circle cx="410" cy="140" r="38"/><circle cx="270" cy="420" r="38"/></g>
  </g><rect x="390" y="1050" width="420" height="62" rx="31" fill="#fff" opacity=".92"/><text x="600" y="1091" text-anchor="middle" font-family="Arial,sans-serif" font-weight="700" font-size="28" fill="#111923">VISUEL DE DÉMONSTRATION</text>
</svg>
